<svg width="146" height="90" viewBox="0 0 146 90" fill="none" xmlns="http://www.w3.org/2000/svg">
<g clip-path="url(#clip0_5125_120656)">
<path d="M65.1006 24.8463V22.4487L71.0499 15.9606L71.043 0H83.4235C88.3499 0 92.3436 4.03733 92.3436 9.01754V28.8312C92.3436 28.8312 92.5116 32.9662 89.1367 35.7354L76.8379 20.0505L84.7347 11.6506L77.5406 11.6344L65.1006 24.8463Z" fill="url(#paint0_linear_5125_120656)"/>
<path d="M83.6977 37.7667L73.13 24.8551L65.2085 33.3854L65.2137 32.5984L73.1548 24.0806L84.3392 37.7714L83.6977 37.7667Z" fill="url(#paint1_linear_5125_120656)"/>
<path d="M92.3427 28.8312V8.97411C92.3427 4.01783 88.3685 0 83.4656 0H71.042L71.049 15.985L71.409 0.372662L83.6094 0.399562C84.0123 0.401907 84.4156 0.436211 84.8108 0.51605C91.6975 1.90835 91.8323 8.37551 91.8323 8.37551V28.999C91.8323 33.1853 88.8015 35.3093 88.8015 35.3093L89.1359 35.7354C91.0949 34.0893 92.3427 31.6076 92.3427 28.8312Z" fill="url(#paint2_linear_5125_120656)"/>
<path opacity="0.4" d="M77.5449 11.6348L78.0089 11.1658H85.2184L84.7384 11.651L77.5449 11.6348Z" fill="url(#paint3_linear_5125_120656)"/>
<path d="M71.0507 15.9607V16.4569L65.1006 22.9416L65.1013 22.4487L71.0507 15.9607Z" fill="url(#paint4_linear_5125_120656)"/>
<path d="M58.207 2.2646C55.2742 5.10583 55.4807 7.06218 55.2538 8.54456V28.9699C55.2538 28.9699 54.9831 34.2617 60.2715 36.6909C61.6386 37.3188 63.1317 37.6162 64.6332 37.6272L84.6499 38.1483L73.1599 24.1124L65.2139 32.6354V24.8158L65.2147 24.8151V22.4218L65.2139 22.4225V0.0612053C65.2091 0.0605883 64.8185 0 64.1951 0C62.7982 0 60.2308 0.303682 58.207 2.2646Z" fill="url(#paint5_linear_5125_120656)"/>
<path d="M84.3383 38.1402H64.6285C63.0258 38.1285 61.5235 37.8056 60.1636 37.1808C54.78 34.708 54.9946 29.2677 54.9974 29.2132L54.9971 8.78136L55.0001 8.76186C55.0305 8.56381 55.0529 8.35527 55.0768 8.13426C55.2266 6.74888 55.432 4.85139 58.0285 2.33592C60.1263 0.303435 62.7907 0 64.1921 0C64.8027 0 65.1689 0.0547886 65.2127 0.0612053V0.563188C65.1729 0.557141 64.7663 0.512965 64.1921 0.512965C62.8667 0.512965 60.3492 0.797891 58.3798 2.70611C55.9164 5.09251 55.7306 6.80996 55.5814 8.19004C55.5576 8.40969 55.5352 8.61761 55.5047 8.8206V29.2264C55.4941 29.4485 55.3116 34.3885 60.3734 36.7138C61.6682 37.3087 63.1011 37.616 64.6321 37.6271L84.3383 37.7716V38.1402Z" fill="url(#paint6_linear_5125_120656)"/>
</g>
<path d="M5.96503 67.9514V49.0451H10.1244V57.3098L17.741 49.0451H22.8457L15.1211 57.0668L23.1698 67.9514H18.1731L12.3122 59.9027L10.1244 62.1715V67.9514H5.96503ZM23.7051 67.9514V49.0451H27.8645V56.5266H35.535V49.0451H39.6944V67.9514H35.535V60.3619H27.8645V67.9514H23.7051ZM42.2364 67.9514V49.0451H56.4971V52.7453H46.3687V56.5806H55.2817V60.2808H46.3687V64.2512H56.6322V67.9514H42.2364ZM58.3411 67.9514V49.0451H62.5005V64.1701H71.9266V67.9514H58.3411ZM81.1759 68.2755C75.3419 68.2755 71.1555 63.9271 71.1555 58.5523V58.4982C71.1555 53.1234 75.396 48.721 81.2299 48.721C87.0639 48.721 91.2503 53.0694 91.2503 58.4442V58.4982C91.2503 63.873 87.0098 68.2755 81.1759 68.2755ZM81.2299 64.4402C84.579 64.4402 86.9018 61.7934 86.9018 58.5523V58.4982C86.9018 55.2572 84.525 52.5563 81.1759 52.5563C77.8268 52.5563 75.504 55.2031 75.504 58.4442V58.4982C75.504 61.7393 77.8808 64.4402 81.2299 64.4402ZM96.6626 67.9514V60.4969L89.3971 49.0451H94.2588L98.7693 56.6346L103.361 49.0451H108.087L100.822 60.4159V67.9514H96.6626ZM104.085 67.9514L112.188 48.91H116.023L124.126 67.9514H119.777L118.049 63.711H110.054L108.326 67.9514H104.085ZM111.54 60.0378H116.563L114.051 53.9067L111.54 60.0378ZM125.055 67.9514V49.0451H133.698C136.101 49.0451 137.938 49.6933 139.207 50.9627C140.288 52.0431 140.828 53.4746 140.828 55.2842V55.3382C140.828 58.3902 139.18 60.3079 136.777 61.1992L141.395 67.9514H136.533L132.482 61.9014H129.214V67.9514H125.055ZM129.214 58.2282H133.427C135.48 58.2282 136.615 57.1748 136.615 55.5543V55.5002C136.615 53.6906 135.399 52.7993 133.346 52.7993H129.214V58.2282Z" fill="white"/>
<g clip-path="url(#clip1_5125_120656)">
<path d="M4.16016 75.8394L4.24302 75.7151H17.4738L17.9986 76.7647L17.9157 76.889H15.9546L15.996 86.8328L15.8856 86.9571L14.6702 86.6256L14.7116 80.3141H11.9771C12.6124 81.2947 12.9024 82.1233 12.9024 82.8415C12.9024 84.2364 11.7699 85.2031 10.4855 85.2031C8.45533 85.2031 6.65992 83.5458 5.15454 79.7893V79.7064L5.85889 79.3335C7.10186 82.3443 8.45533 83.753 9.89165 83.753C10.7065 83.753 11.8252 83.1453 11.8252 81.9023C11.8252 81.3637 11.397 80.5351 9.61544 80.3141L9.11825 79.1678L9.20111 79.0435H14.7116V76.889H4.68497L4.16016 75.8394Z" fill="white"/>
<path d="M16.9618 75.8398L17.0447 75.7155H19.0197C18.8401 73.2019 17.8457 71.9728 16.368 71.9728C15.3322 71.9728 14.7659 72.6771 14.7659 73.4505C14.7659 74.0996 15.0559 74.7073 15.4979 75.2735L15.4012 75.3978L14.2549 74.873C13.7577 74.2792 13.4263 73.6301 13.4263 72.9533C13.4263 71.807 14.2411 70.8955 15.7603 70.8955C17.8457 70.8955 19.8621 72.8981 20.235 75.7293H21.7956L22.3204 76.7789L22.2376 76.9032H20.2764L20.3179 86.847L20.2074 86.9713L18.992 86.6399L19.0197 76.9032H17.4728L16.948 75.8536L16.9618 75.8398Z" fill="white"/>
<path d="M21.2715 75.8394L21.3543 75.7151H31.5467L32.0716 76.7647L31.9887 76.889H30.0276L30.069 86.8328L29.9585 86.9571L28.7431 86.6256L28.7846 80.2727C28.2598 80.245 27.6935 80.245 27.0997 80.245C24.6828 80.245 23.7851 81.0737 23.7851 82.0404C23.7851 83.1453 24.8761 84.4159 26.8511 85.6036L25.9119 86.9433H25.8152C23.7298 85.0374 22.6802 83.2006 22.6802 81.5156C22.6802 79.8307 23.5917 78.9054 26.3953 78.9054C27.2378 78.9054 28.025 78.9054 28.7984 78.9744V76.9028H21.8101L21.2853 75.8532L21.2715 75.8394Z" fill="white"/>
<path d="M35.5381 75.8394L35.621 75.7151H48.9208L49.4456 76.7647L49.3627 76.889H43.7003V80.2589L43.7279 80.2865C44.3632 79.6512 45.109 79.2645 45.9515 79.2645C47.3602 79.2645 48.4236 80.5627 48.4236 82.0128C48.4236 83.2006 47.7745 84.333 46.8768 85.4517H46.7663L45.62 84.6231C46.6558 83.4353 47.3602 82.3167 47.3602 81.3223C47.3602 80.7975 47.0839 80.4384 46.5177 80.4384C45.5786 80.4384 44.5704 81.2118 43.7141 82.289L43.7417 86.8466L43.6312 86.9709L42.4435 86.6395L42.4849 83.4353L42.4573 83.4077C41.7668 84.0154 41.0072 84.264 40.2476 84.264C38.2588 84.264 36.8777 82.7586 36.8777 81.0461C36.8777 79.3335 38.245 78.4634 40.0266 78.4634C40.8414 78.4634 41.6701 78.5739 42.4987 78.8087V76.9028H36.0629L35.5381 75.8532V75.8394ZM42.4987 79.7479C41.9739 79.6374 41.4077 79.5683 40.8414 79.5683C39.3223 79.5683 38.176 80.5903 38.176 81.7228C38.176 82.6205 38.7284 83.0901 39.6261 83.0901C40.5238 83.0901 41.5182 82.5653 42.4987 81.5018V79.7479Z" fill="white"/>
<path d="M53.6853 76.9034H51.7242L51.7656 86.8472L51.6551 86.9715L50.4398 86.64L50.4674 76.9034H48.9206L48.3958 75.8538L48.4787 75.7295H50.6193C50.3293 75.0804 50.0255 74.4313 49.694 73.7684C49.0725 72.5254 48.7134 72.0006 47.4428 72.0006C46.7937 72.0006 46.1446 72.1111 45.5093 72.2768L45.4265 72.2077L44.874 70.7162C45.4679 70.5366 46.1584 70.4399 46.9733 70.4399C49.0035 70.4399 49.4316 71.752 51.4894 75.7295H53.2296L53.7544 76.7791L53.6715 76.9034H53.6853Z" fill="white"/>
<path d="M59.8456 76.6273V76.5444C60.7986 75.9091 61.7101 75.55 62.4973 75.55C63.4641 75.55 64.2651 75.9782 64.9142 76.793C65.3976 77.4145 65.6462 78.0912 65.6462 78.8646C65.6462 79.4999 65.439 79.9971 65.0661 80.4115C65.3838 80.6186 65.6048 80.8396 65.7981 81.0468C66.0743 81.323 66.5025 81.4749 67.124 81.4749C67.7731 81.4749 68.3945 81.2954 68.9194 80.9225V76.9311H66.8339L66.3091 75.8815L66.392 75.7572H76.0043L76.5291 76.8068L76.4463 76.9311H74.4851L74.5266 86.8749L74.4161 86.9992L73.2007 86.6678L73.2283 76.9311H70.1623L70.2038 86.8749L70.0933 86.9992L68.8917 86.6678V82.635C68.6155 82.7179 68.3117 82.7593 67.9526 82.7593C67.3449 82.7593 66.7787 82.5798 66.3229 82.2345L66.2953 82.2621C66.4196 82.5936 66.4196 82.9388 66.4196 83.3255C66.4196 84.8309 65.2181 85.8806 63.6989 85.8806C61.351 85.8806 59.7213 83.947 58.3955 81.2815V81.1987L59.0446 80.7982C60.2738 83.2013 61.6549 84.458 63.1464 84.458C64.2237 84.458 65.3147 83.6432 65.3147 82.5521C65.3147 81.6268 64.7485 81.0191 63.7541 81.0191C63.2431 81.0191 62.5664 81.2125 61.7515 81.5716L60.9229 80.2734L60.9505 80.1905C62.0001 79.7624 62.9393 79.4999 63.6989 79.4999C64.2375 79.1271 64.5828 78.6437 64.5828 78.0636C64.5828 77.4283 64.0441 76.9173 63.2984 76.9173C62.5526 76.9173 61.6687 77.2764 60.6881 77.9117L59.8456 76.6549V76.6273Z" fill="white"/>
<path d="M75.5063 75.8394L75.5892 75.7151H85.6573L86.1821 76.7647L86.0993 76.889H83.6824V80.1069L83.5857 80.2174H81.9836C79.4701 80.2174 78.2823 81.0046 78.2823 82.4272C78.2823 83.6839 79.2491 84.6507 80.7407 84.6507C81.3207 84.6507 81.8593 84.4988 82.4118 84.2226C82.1217 83.9463 81.9836 83.5873 81.9836 83.1591C81.9836 82.5238 82.5361 81.9023 83.2957 81.9023C83.7238 81.9023 84.0829 82.0681 84.3867 82.3719C84.7182 82.7034 84.8839 83.1039 84.8839 83.5458C84.8839 84.1259 84.5663 84.6231 83.9586 85.0374C85.0911 86.0732 85.5192 86.9157 85.5192 87.5924C85.5192 88.4763 84.9944 89.1116 84.2348 89.6364H84.1519L82.8675 88.6006C83.6133 88.1034 84.1105 87.5648 84.1105 86.8881C84.1105 86.4185 83.8757 85.9351 83.3509 85.4103C82.7018 85.7418 82.0527 85.8384 81.376 85.8384C78.7657 85.8384 76.9565 83.8359 76.9565 81.8333C76.9565 79.8307 78.5033 78.9606 80.6302 78.9606H82.1355C82.3565 78.9606 82.467 78.8501 82.467 78.6568V76.889H76.0312L75.5063 75.8394Z" fill="white"/>
<path d="M85.1465 75.8394L85.2294 75.7151H95.4217L95.9466 76.7647L95.8637 76.889H93.9026L93.944 86.8328L93.8335 86.9571L92.6181 86.6256L92.6596 80.2727C92.1348 80.245 91.5685 80.245 90.9747 80.245C88.5578 80.245 87.6601 81.0737 87.6601 82.0404C87.6601 83.1453 88.7511 84.4159 90.7261 85.6036L89.7869 86.9433H89.6902C87.6048 85.0374 86.5552 83.2006 86.5552 81.5156C86.5552 79.8307 87.4667 78.9054 90.2703 78.9054C91.1128 78.9054 91.9 78.9054 92.6734 78.9744V76.9028H85.6851L85.1603 75.8532L85.1465 75.8394Z" fill="white"/>
<path d="M99.4131 75.8394L99.4959 75.7151H109.785L110.31 76.7647L110.227 76.889H108.266L108.307 86.8328L108.197 86.9571L106.981 86.6256L107.023 83.7116C106.291 84.2502 105.462 84.5126 104.537 84.5126C102.562 84.5126 100.753 82.952 100.753 81.0599C100.753 79.4026 102.148 78.3806 104.067 78.3806C105.02 78.3806 106.015 78.5049 107.037 78.7673V76.889H99.9517L99.4269 75.8394H99.4131ZM103.17 79.9136C102.41 80.3003 102.023 80.908 102.023 81.7366C102.023 82.6067 102.631 83.3387 103.971 83.3387C104.468 83.3387 104.937 83.2558 105.366 83.1039L103.17 79.9274V79.9136ZM106.042 82.7586C106.609 82.3995 107.037 81.8195 107.037 81.0184V79.7755C106.401 79.6097 105.752 79.5407 105.131 79.5407C104.675 79.5407 104.261 79.5683 103.915 79.665L106.028 82.7724L106.042 82.7586Z" fill="white"/>
<path d="M109.274 75.8394L109.357 75.7151H119.453L119.977 76.7647L119.895 76.889H117.933L117.989 86.8328L117.878 86.9571L116.649 86.6256L116.69 81.1013C116.166 81.0461 115.655 81.0184 115.075 81.0184C114.356 81.0184 113.735 81.0875 113.279 81.2256V82.0543C113.279 82.5376 113.238 82.8553 113.169 82.9934C113.003 83.2696 112.754 83.4077 112.437 83.4077C111.953 83.4077 110.531 81.9714 110.531 81.0184C110.531 80.6317 110.779 80.2865 111.304 80.0517C111.884 79.7893 112.616 79.7064 113.404 79.7064C114.398 79.7064 115.503 79.7893 116.677 79.9136V76.9028H109.785L109.26 75.8532L109.274 75.8394Z" fill="white"/>
<path d="M118.928 75.8394L119.011 75.7151H123.762L124.287 76.7647L124.204 76.889H122.243L122.284 86.8328L122.174 86.9571L120.959 86.6256L120.986 76.889H119.439L118.915 75.8394H118.928Z" fill="white"/>
<path d="M142.476 76.9031H140.515L140.556 86.8469L140.446 86.9712L139.231 86.6398L139.258 76.9031H136.192L136.234 86.8469L136.123 86.9712L134.922 86.6398V82.607C134.645 82.6899 134.341 82.7313 133.982 82.7313C133.375 82.7313 132.808 82.5518 132.353 82.2065L132.325 82.2341C132.449 82.5656 132.449 82.9108 132.449 83.2975C132.449 84.8029 131.248 85.8526 129.729 85.8526C127.381 85.8526 125.751 83.919 124.425 81.2535V81.1707L125.074 80.7702C126.304 83.1733 127.685 84.43 129.176 84.43C130.253 84.43 131.345 83.6152 131.345 82.5241C131.345 81.5988 130.778 80.9911 129.784 80.9911C129.273 80.9911 128.596 81.1845 127.781 81.5436L126.953 80.2454L126.98 80.1625C128.03 79.7344 128.969 79.4719 129.729 79.4719C130.267 79.0991 130.613 78.6157 130.613 78.0356C130.613 77.4003 130.074 76.8893 129.328 76.8893C128.582 76.8893 127.698 77.2484 126.718 77.8837L125.875 76.6269V76.5441C126.828 75.9088 127.74 75.5497 128.527 75.5497C129.494 75.5497 130.295 75.9778 130.944 76.7926C131.427 77.4141 131.676 78.0909 131.676 78.8643C131.676 79.4996 131.469 79.9968 131.096 80.4111C131.414 80.6182 131.635 80.8392 131.828 81.0464C132.104 81.3226 132.532 81.4745 133.154 81.4745C133.803 81.4745 134.424 81.295 134.949 80.9221V76.9308H132.864L132.339 75.8811L132.422 75.7568H139.424C139.134 75.1077 138.83 74.4586 138.499 73.7957C137.877 72.5527 137.504 72.0279 136.247 72.0279C135.598 72.0279 134.949 72.1384 134.314 72.3041L134.231 72.2351L133.679 70.7435C134.272 70.564 134.963 70.4673 135.778 70.4673C137.808 70.4673 138.236 71.7793 140.294 75.7568H142.034L142.559 76.8065L142.476 76.9308V76.9031Z" fill="white"/>
</g>
<defs>
<linearGradient id="paint0_linear_5125_120656" x1="65.1006" y1="17.8677" x2="92.345" y2="17.8677" gradientUnits="userSpaceOnUse">
<stop stop-color="#F2D71A"/>
<stop offset="1" stop-color="#ECB024"/>
</linearGradient>
<linearGradient id="paint1_linear_5125_120656" x1="65.2085" y1="30.926" x2="84.3392" y2="30.926" gradientUnits="userSpaceOnUse">
<stop stop-color="#F2D71A"/>
<stop offset="1" stop-color="#ECB024"/>
</linearGradient>
<linearGradient id="paint2_linear_5125_120656" x1="81.6924" y1="-0.0656106" x2="81.6924" y2="34.3279" gradientUnits="userSpaceOnUse">
<stop stop-color="#F2D71A"/>
<stop offset="1" stop-color="#ECB024"/>
</linearGradient>
<linearGradient id="paint3_linear_5125_120656" x1="77.5449" y1="11.4084" x2="85.2183" y2="11.4084" gradientUnits="userSpaceOnUse">
<stop stop-color="#F2D71A"/>
<stop offset="1" stop-color="#ECB024"/>
</linearGradient>
<linearGradient id="paint4_linear_5125_120656" x1="65.1006" y1="19.4511" x2="71.0507" y2="19.4511" gradientUnits="userSpaceOnUse">
<stop stop-color="#F2D71A"/>
<stop offset="1" stop-color="#ECB024"/>
</linearGradient>
<linearGradient id="paint5_linear_5125_120656" x1="55.2514" y1="19.0741" x2="84.6498" y2="19.0741" gradientUnits="userSpaceOnUse">
<stop stop-color="#F2D71A"/>
<stop offset="1" stop-color="#ECB024"/>
</linearGradient>
<linearGradient id="paint6_linear_5125_120656" x1="69.667" y1="0.127532" x2="69.667" y2="35.7963" gradientUnits="userSpaceOnUse">
<stop stop-color="#F2D71A"/>
<stop offset="1" stop-color="#ECB024"/>
</linearGradient>
<clipPath id="clip0_5125_120656">
<rect width="37.3491" height="38.1482" fill="white" transform="translate(54.9956)"/>
</clipPath>
<clipPath id="clip1_5125_120656">
<rect width="138.398" height="19.1971" fill="white" transform="translate(4.16016 70.4399)"/>
</clipPath>
</defs>
</svg>
